<svg xmlns="http://www.w3.org/2000/svg" id="SvgjsSvg105665" width="4096" height="4093.0458314280568" version="1.1" xmlns:xlink="http://www.w3.org/1999/xlink" xmlns:svgjs="http://svgjs.com/svgjs"><defs id="SvgjsDefs105666"></defs><g id="SvgjsG105667" transform="translate(328, 328) scale(34.4)" opacity="1"><defs id="SvgjsDefs29767"></defs><g id="SvgjsG29768" transform="scale(0.3506989224521923)" opacity="1"><g id="SvgjsG29769" class="YA7rcqsVv" transform="translate(-28.385628304064234, -28.27036307420526) scale(14.234643232828306)" light-content="false" non-strokable="false" fill="#1c64f2"><path d="M12 14a1 1 0 0 1-.49-.13l-9-5a1 1 0 0 1 0-1.75l9-5a1 1 0 0 1 1 0l9 5a1 1 0 0 1 0 1.75l-9 5A1 1 0 0 1 12 14zm0 8a1 1 0 0 1-.49-.13l-9-5a1 1 0 0 1 1-1.75L12 19.86l8.51-4.73a1 1 0 1 1 1 1.75l-9 5A1 1 0 0 1 12 22z"></path><path d="M12 18a1 1 0 0 1-.49-.13l-9-5a1 1 0 0 1 1-1.75L12 15.86l8.51-4.73a1 1 0 1 1 1 1.75l-9 5A1 1 0 0 1 12 18z"></path></g></g></g></svg>